<svg xmlns="http://www.w3.org/2000/svg" width="28" height="33" fill="none"><g clip-path="url(#a)"><path fill="#09C382" fill-rule="evenodd" d="M4.58 2.55V.65H.25v17.511c0 7.571 6.117 13.709 13.662 13.709s13.662-6.138 13.662-13.71V.652h-4.329v1.9h-7.304V.65h-4.329v1.9zm7.033 24.69a9.364 9.364 0 0 1-7.033-8.956 9.2 9.2 0 0 1 4.34 2.444 9.23 9.23 0 0 1 2.693 6.512m.367-9.583c.678.68 1.28 1.429 1.797 2.233a13.6 13.6 0 0 1 4.024-4.037 13.55 13.55 0 0 1-4.023-4.037 13.6 13.6 0 0 1-4.023 4.037c.8.52 1.547 1.124 2.225 1.804m11.266.566a9.36 9.36 0 0 1-7.304 9.081v-.05a9.26 9.26 0 0 1 2.694-6.526 9.2 9.2 0 0 1 4.61-2.506Zm-11.96-11.33a9.25 9.25 0 0 1-2.367 4.084 9.2 9.2 0 0 1-4.34 2.444V6.894h6.706Zm11.96 6.59v-6.59H16.27a9.23 9.23 0 0 0 2.366 4.083 9.2 9.2 0 0 0 4.61 2.506Z" clip-rule="evenodd"/></g><defs><clipPath id="a"><path fill="#fff" d="M0 .243h28v32H0z"/></clipPath></defs></svg>