<svg xmlns="http://www.w3.org/2000/svg" width="32" height="33" fill="none"><g clip-path="url(#a)"><path fill="#297AFF" d="M26.979 29.508A17.143 17.143 0 0 0 2.735 5.264l5.657 5.657c.893.893 2.334.848 3.47.297a6.856 6.856 0 0 1 9.164 9.163c-.552 1.136-.596 2.578.296 3.47z"/><path fill="#34C2FF" d="M24 32.243h-8.392a4.57 4.57 0 0 1-3.233-1.339L1.34 19.868A4.57 4.57 0 0 1 0 16.635V8.243zm-15.429 0H3.43A3.43 3.43 0 0 1 0 28.815v-5.143z"/></g><defs><clipPath id="a"><path fill="#fff" d="M0 .243h32v32H0z"/></clipPath></defs></svg>