<svg xmlns="http://www.w3.org/2000/svg" width="32" height="33" fill="none"><g clip-path="url(#a)"><path fill="url(#b)" d="M19.2.243h-6.4v9.65a3.2 3.2 0 0 1-3.2 3.15H0v6.4h6.949a6.4 6.4 0 0 0 4.526-1.874l5.85-5.851A6.4 6.4 0 0 0 19.2 7.192z"/><path fill="url(#c)" d="M12.8 32.243h6.4v-9.65a3.2 3.2 0 0 1 3.2-3.15H32v-6.4h-6.95a6.4 6.4 0 0 0-4.525 1.875l-5.85 5.85a6.4 6.4 0 0 0-1.875 4.526v6.95Z"/></g><defs><linearGradient id="b" x1="16" x2="16" y1="-.554" y2="27.278" gradientUnits="userSpaceOnUse"><stop stop-color="#75D8FC"/><stop offset="1" stop-color="#0072E5"/></linearGradient><linearGradient id="c" x1="16" x2="16" y1="-.554" y2="27.278" gradientUnits="userSpaceOnUse"><stop stop-color="#75D8FC"/><stop offset="1" stop-color="#0072E5"/></linearGradient><clipPath id="a"><path fill="#fff" d="M0 .243h32v32H0z"/></clipPath></defs></svg>