<svg xmlns="http://www.w3.org/2000/svg" width="32" height="27" fill="none"><g clip-path="url(#a)"><path fill="#FF0A0A" d="M24.421 26.243c4.201-.085 7.579-3.505 7.579-7.71a7.7 7.7 0 0 0-2.267-5.451L16.843.243v7.98a5.02 5.02 0 0 0 1.479 3.559l3.02 3.007.008.008 5.063 5.043a.42.42 0 0 1 0 .593.42.42 0 0 1-.595 0l-1.745-1.738H7.928l-1.746 1.738a.42.42 0 0 1-.595 0 .42.42 0 0 1 0-.593l5.063-5.043.008-.008 3.02-3.007a5.02 5.02 0 0 0 1.48-3.559V.243L2.268 13.082A7.7 7.7 0 0 0 0 18.534c0 4.204 3.378 7.624 7.579 7.71h16.842Z"/></g><defs><clipPath id="a"><path fill="#fff" d="M0 .243h32v26H0z"/></clipPath></defs></svg>