<svg xmlns="http://www.w3.org/2000/svg" width="37" height="41" fill="none"><path fill="#FF7816" d="m-1-1 2.671 36.758L18.001 41l16.328-5.242L37-1z"/><path fill="#FF4B00" d="m37-1-2.671 36.758L18 41V-1z"/><path fill="#ECECF1" d="M29.654 10.864H11.32l.445 6.081h17.443l-1.064 14.723L18 35 7.856 31.668l-.347-4.913h4.949l.099 1.338L18 29.868l5.443-1.775.445-6.284H7.139L6 6h24z"/><path fill="#E2E2E7" d="m29.208 16.945-1.064 14.723L18 35v-5.132l5.443-1.775.445-6.284H18v-4.864zM30 6l-.346 4.864H18V6z"/></svg>