<svg xmlns="http://www.w3.org/2000/svg" width="141" height="130" fill="none"><path fill="#fff" fill-opacity=".2" d="M63.36 111.096c-.099 2.316-.263 4.388-.35 6.504-.087 2.117-.13 4.156-.294 6.228-.385 4.421-4.941 6.95-8.855 4.793a2441 2441 0 0 1-31.343-18.095c-3.792-2.19-3.912-7.521-.199-10.021 3.09-2.136 6.292-4.106 9.415-6.12.334-.221.712-.519 1.212-.849l-1.315-.76L5.628 77.765c-5.65-3.262-7.187-8.999-3.97-14.571L34.901 5.616C38.162-.034 43.9-1.571 49.549 1.69l85.205 49.193c5.572 3.217 7.109 8.954 3.892 14.526l-33.286 57.655c-3.217 5.572-8.955 7.109-14.527 3.892l-26.002-15.012-1.47-.849Zm41.198 5.315.67-1.161 29.847-51.696c2.189-3.792 1.261-7.01-2.453-9.155L99.886 35.5l-1.16-.67-33.913 58.738c13.278 7.563 26.434 15.159 39.745 22.844ZM95.21 32.696l-1.084-.625L47.461 5.128c-3.637-2.1-7.01-1.261-9.11 2.376L8.414 59.354l-.626 1.084 53.553 30.92zM5.888 64.088C2.8 68.186 3.537 71.913 7.793 74.37l84.819 48.97.851.491c3.527 1.933 7.97-.042 8.929-4.028zm34.273 51.981 15.246 8.802c1.857 1.072 3.269.236 3.356-1.881.263-4.388.45-8.82.713-13.209.003-.72-.095-1.086-.792-1.488L37.712 96.184c-.62-.357-1.018-.381-1.685.06-3.669 2.421-7.293 4.766-10.916 7.111-2.001 1.321-1.975 2.884.114 4.09z"/><path fill="#fff" fill-opacity=".2" d="m99.792 79.092 12.537 7.238c1.238.715 1.654 1.781 1.073 2.787-.503 1.05-1.724 1.378-3.007.74l-5.726-3.306-19.425-11.215c-.542-.312-1.27-.837-1.28-1.358-.118-.687.096-1.595.486-2.092.647-.762 1.644-.702 2.495-.21l9.21 5.316zm-5.082 8.623 12.383 7.149c.541.313 1.226.914 1.312 1.48.164.61-.051 1.518-.551 1.849-.545.407-1.388.437-2.186.389-.476-.069-1.05-.504-1.515-.772L79.621 83.647c-.961-.659-1.256-1.757-.797-2.73.58-1.007 1.68-1.301 2.808-.753l6.268 3.62c2.4 1.384 4.643 2.68 6.81 3.931m-7.048 12.028L75.28 92.594c-1.393-.804-1.842-1.992-1.216-3.076.625-1.083 1.834-1.21 3.15-.451l24.919 14.387c1.393.804 1.842 1.992 1.216 3.076-.625 1.083-1.834 1.211-3.15.451zm9.478-45.192c.321 2.662.61 5.201.897 7.741.214 1.774-.322 2.703-1.653 2.863-1.253.206-2.125-.608-2.306-2.26-.342-2.983-.683-5.966-1.07-8.872-.16-1.33.287-2.105 1.52-2.631 2.831-1.151 5.63-2.425 8.462-3.576 1.355-.559 2.495-.21 2.988.9.494 1.11-.009 2.162-1.364 2.72-2.498.932-4.963 1.985-7.473 3.115ZM120.435 68c-.276-2.739-.641-5.323-.929-7.862-.226-1.575.432-2.537 1.686-2.742 1.208-.127 2.08.686 2.229 2.216.341 2.983.76 6.01 1.101 8.994.161 1.33-.286 2.105-1.519 2.631-2.831 1.151-5.585 2.347-8.34 3.543-1.476.592-2.539.288-3.066-.945-.449-1.188.087-2.116 1.531-2.83A379 379 0 0 0 120.435 68m-4.361-11.391c-1.325 1.401-2.817 2.913-4.309 4.425-2.305 2.384-4.655 4.845-7.037 7.185-1.025 1.059-2.156 1.231-3.028.418-.949-.857-.878-2.054.192-3.191 3.63-3.786 7.26-7.571 10.968-11.312.857-.95 1.944-1.045 2.828-.431.839.69 1.056 1.745.386 2.906m-63.646-9.506L33.854 36.38c-2.553-1.474-3.142-3.672-1.668-6.225l9.428-16.33c1.474-2.553 3.672-3.142 6.225-1.668l37.147 21.447c2.477 1.43 3.065 3.627 1.636 6.104l-9.473 16.406c-1.43 2.476-3.627 3.065-6.103 1.635-6.236-3.497-12.427-7.071-18.618-10.646m30.89-9.716-37.92-21.893-9.92 17.18 37.92 21.894zM22.032 47.921c1.25-2.167 2.547-4.41 3.798-6.578 1.295-2.244 3.615-2.866 5.859-1.57l13.388 7.73c2.167 1.251 2.789 3.57 1.538 5.737l-7.73 13.389c-1.296 2.244-3.57 2.788-5.737 1.537L19.682 60.39c-2.167-1.25-2.711-3.525-1.46-5.692 1.174-2.212 2.47-4.456 3.81-6.778Zm21.112 3.11-13.698-7.91-7.908 13.698 13.698 7.909 7.908-13.698Zm19.346 6.525 6.733 3.887c2.245 1.296 2.866 3.615 1.57 5.86l-7.685 13.31c-1.34 2.322-3.537 2.91-5.859 1.57-4.489-2.59-8.9-5.138-13.388-7.73-2.167-1.25-2.789-3.57-1.538-5.737l7.73-13.388c1.251-2.167 3.57-2.788 5.737-1.537 2.212 1.174 4.456 2.47 6.7 3.765M59.414 78.79l7.909-13.697-13.698-7.909-7.908 13.698z"/></svg>