<svg xmlns="http://www.w3.org/2000/svg" width="120" height="120" fill="none"><path fill="#fff" fill-opacity=".2" d="M0 62.125c.875-2.563 2.5-4.313 5.342-4.531.531-.032 1.156-.094 1.625.125 1.093.531 1.718.031 2.468-.719 5.374-5.438 10.81-10.813 16.214-16.219.282-.281.532-.562.782-.812-2.25-3.75-2.406-8.594 1.437-12.375 2.624-2.563 7.217-3.907 11.965-1.094.219-.219.5-.406.75-.656C46.175 20.25 51.8 14.625 57.36 9c.313-.313.562-.938.469-1.344-.938-3.437.53-6.281 3.842-7.437.157-.063.282-.125.407-.219h2.343c2.437.813 4.155 2.281 4.498 5 .5 4.094-3.155 7.313-7.123 6.25-.843-.219-1.312-.063-1.905.531a570 570 0 0 1-8.717 8.688c-.281.281-.625.437-.843.843 9.216-3.687 18.651-5.062 28.398-3.906 9.78 1.157 18.62 4.75 26.806 10.813.875-.969 1.75-2 2.718-2.969 1.156-1.156 2.062-1.156 3.218-.031a901 901 0 0 1 7.717 7.718c1.093 1.094 1.093 2.032-.032 3.157a592 592 0 0 1-7.716 7.687c-1.094 1.094-2.031 1.094-3.156 0-2.593-2.562-5.155-5.093-7.748-7.687-1.124-1.125-1.093-2.094.032-3.219.656-.656 1.343-1.313 1.999-1.969-16.246-12.625-41.364-13.875-59.547-1 1.843 4.407 1.437 8.5-2.28 11.813-3.219 2.843-6.968 3.031-10.81 1.312-11.622 15.563-13.122 41.094.968 59.719.688-.781 1.344-1.562 2.062-2.281.969-.969 2-.969 3 0 2.655 2.656 5.31 5.312 7.904 8 .843.875.906 1.906.093 2.719-2.937 2.968-5.936 5.874-8.904 8.812h-1.187c-.343-.25-.718-.469-1.03-.781-2.594-2.594-5.218-5.188-7.78-7.781-1.062-1.094-1.062-2.032.062-3.126.969-.968 2-1.843 2.906-2.687-12.06-17.375-14.278-35.688-6.842-55.219-3.25 3.125-6.373 6.344-9.56 9.5-.625.594-.719 1.094-.5 1.907.844 2.937-.781 5.937-3.686 6.906-2.843.969-5.874-.375-7.092-3.125C.219 65.28.03 65-.125 64.688 0 63.843 0 62.968 0 62.124Zm34.522-21.75c3.28 0 5.843-2.625 5.811-5.906-.031-3.219-2.593-5.813-5.81-5.844-3.187-.031-5.906 2.656-5.906 5.875 0 3.25 2.656 5.906 5.905 5.875m5.343 69.437-5.249-5.25c-1.78 1.782-3.593 3.626-5.28 5.313 1.687 1.719 3.5 3.531 5.218 5.25l5.31-5.313Zm64.889-75.468a846 846 0 0 1 5.249 5.281l5.154-5.156c-1.718-1.719-3.53-3.532-5.248-5.282zM63.296 7.719c1.093 0 2-.938 1.968-2.032-.031-1.093-.968-2-2.062-1.937a1.97 1.97 0 0 0-1.905 1.969c0 1.125.874 2.031 1.999 2M7.716 63.25c0-1.063-.843-1.906-1.936-1.938-1.094-.03-1.875.72-1.875 1.813 0 1.125.875 2.031 2 2 1.062 0 1.843-.813 1.812-1.875Z"/><path fill="#fff" fill-opacity=".2" d="M88.352 120c-.468-.563-1.03-1.063-1.343-1.688a476 476 0 0 1-5.28-10.562c-.375-.75-.844-1.219-1.625-1.531-6.186-2.344-12.371-4.75-18.557-7.094-1.031-.375-1.656-.969-2.062-2.031-6.28-15.75-12.56-31.5-18.87-47.25-.5-1.25-.375-2.188.625-3.157 1.968-1.843 3.842-3.78 5.717-5.718.78-.813 1.624-.969 2.655-.563 15.934 6.375 31.836 12.75 47.77 19.094.968.375 1.436 1.094 1.78 2 2.343 6.156 4.717 12.313 7.061 18.469.312.812.781 1.344 1.562 1.719 3.561 1.75 7.123 3.53 10.684 5.312 1.875.938 2.094 2.156.594 3.656-9.435 9.438-18.87 18.906-28.336 28.344-.344.344-.781.625-1.188.969-.406.031-.812.031-1.187.031M72.138 69.312c6.748-3.03 12.122-2 15.465 3 2.968 4.438 2.311 10.5-1.563 14.126-3.936 3.718-9.84 4.062-14.183.874-3.656-2.687-6.468-8.75-2.594-15.093-8.029-8.031-16.058-16.063-24.118-24.094-.781.406-.938.969-.531 1.938 5.936 14.75 11.84 29.53 17.714 44.312.343.875.843 1.438 1.78 1.781a844 844 0 0 1 16.809 6.469c.906.344 1.374.156 2-.469a2787 2787 0 0 1 19.213-19.219c.687-.656.719-1.187.406-2.03a1555 1555 0 0 1-6.467-16.813c-.344-.906-.844-1.344-1.718-1.688A10894 10894 0 0 1 50.05 44.688c-1-.407-1.594-.282-2 .593 8.06 8.032 16.059 16.032 24.088 24.032Zm17.245 45.438 25.306-25.313c-2.999-1.5-6.092-3.03-9.154-4.593-6.81 6.812-13.559 13.531-20.244 20.281-.22.219-.313.781-.157 1.062 1.375 2.875 2.812 5.719 4.25 8.563ZM71.17 78.437c-.031 4.032 3.218 7.344 7.248 7.344 4 0 7.311-3.312 7.311-7.312 0-3.969-3.25-7.219-7.217-7.25-4.093-.031-7.31 3.156-7.342 7.219Z"/></svg>