<svg xmlns="http://www.w3.org/2000/svg" width="28" height="17" fill="none"><path fill="#fff" d="M11.2 7.758c1.54-.726 2.333-1.823 2.333-3.539C13.533.82 10.998 0 8.073 0H0v17h8.291c3.111 0 6.036-1.484 6.036-4.93 0-2.148-1.027-3.725-3.127-4.312m-7.42-5.27h3.562c1.37 0 2.598.371 2.598 1.947 0 1.453-.964 2.04-2.318 2.04H3.78zM7.84 13.77H3.78V9.056h4.138c1.664 0 2.722.696 2.722 2.442s-1.26 2.272-2.8 2.272M25.262 2.148h-6.984V.464h6.984zM28 10.664C28 7 25.838 3.94 21.933 3.94c-3.904 0-6.377 2.844-6.377 6.553S17.998 17 21.933 17c2.971 0 4.9-1.33 5.834-4.157h-3.018c-.327 1.05-1.665 1.607-2.707 1.607-2.006 0-3.064-1.16-3.064-3.153h8.99c.016-.2.032-.417.032-.633m-9.022-1.515c.109-1.623 1.198-2.643 2.846-2.643 1.65 0 2.583 1.005 2.723 2.643z"/></svg>