<svg xmlns="http://www.w3.org/2000/svg" width="29" height="28" fill="none"><path fill="#fff" d="M24.668 4.367A14.06 14.06 0 0 0 14.513 0c-1.877 0-3.676.365-5.357 1.069h-.014A13.97 13.97 0 0 0 .604 12.384v.013a12 12 0 0 0-.104 1.59c0 3.806 1.499 7.365 4.21 9.998A13.94 13.94 0 0 0 14.513 28c1.955 0 3.833-.391 5.58-1.16 4.81-2.099 8.016-6.635 8.368-11.823a13.95 13.95 0 0 0-3.82-10.663zm-6.61 9.007a33 33 0 0 0-1.081-2.437 28.5 28.5 0 0 0 6.882-4.524 11.96 11.96 0 0 1 2.686 7.222 19.7 19.7 0 0 0-8.5-.26h.014Zm4.459-8.368a26.7 26.7 0 0 1-6.44 4.21 36.7 36.7 0 0 0-4.849-6.804c1.056-.3 2.151-.47 3.285-.47 2.946 0 5.8 1.108 8.004 3.064M9.286 3.18a34 34 0 0 1 4.98 6.804c-3.65 1.382-7.47 1.955-11.55 1.656a11.98 11.98 0 0 1 6.557-8.46zM2.468 13.583c.77.065 1.525.104 2.269.104 3.597 0 7.104-.678 10.44-1.968.353.704.666 1.42.965 2.138a19.83 19.83 0 0 0-10.871 7.9 11.9 11.9 0 0 1-2.816-7.73v-.431zm4.21 9.568a17.95 17.95 0 0 1 10.142-7.47 33.6 33.6 0 0 1 1.851 9.62 11.8 11.8 0 0 1-4.171.757c-2.907 0-5.644-1.043-7.834-2.92l.013.013Zm13.896 1.264a36 36 0 0 0-1.838-9.177 17.8 17.8 0 0 1 7.691.405 11.92 11.92 0 0 1-5.852 8.772Z"/></svg>