<svg xmlns="http://www.w3.org/2000/svg" width="29" height="29" fill="none"><path fill="#fff" d="M14.5.5C6.775.5.5 6.775.5 14.5s6.275 14 14 14 14-6.275 14-14-6.275-14-14-14m3.202 25.401v-3.302c0-1.207-.416-1.996-.876-2.398 2.872-.316 5.902-1.408 5.902-6.376 0-1.407-.503-2.556-1.336-3.46.144-.33.589-1.652-.115-3.432 0 0-1.09-.345-3.56 1.335a12.8 12.8 0 0 0-3.231-.445 12.6 12.6 0 0 0-3.231.445c-2.47-1.68-3.561-1.335-3.561-1.335-.704 1.78-.259 3.101-.13 3.432-.818.904-1.32 2.053-1.32 3.46 0 4.954 3.015 6.06 5.887 6.39-.374.316-.704.89-.819 1.723-.746.33-2.613.905-3.762-1.077 0 0-.689-1.235-1.981-1.321 0 0-1.264-.014-.086.775 0 0 .847.402 1.435 1.896 0 0 .747 2.312 4.351 1.522V25.9c-4.982-1.406-8.644-5.972-8.644-11.4 0-6.533 5.313-11.846 11.846-11.846S26.317 7.967 26.317 14.5c0 5.428-3.661 9.994-8.644 11.401z"/></svg>