<svg xmlns="http://www.w3.org/2000/svg" width="39" height="39" fill="none"><path fill="#fff" fill-rule="evenodd" d="M11.85.016q2.565-.031 5.129 0a1.696 1.696 0 1 1-.043 3.391q-2.522-.03-5.044 0a1.696 1.696 0 0 1-.043-3.391ZM8.476 1.774a1.695 1.695 0 0 1-1.605 1.782q-.711.036-1.421.088c-1.035.074-1.733.773-1.808 1.807q-.05.71-.088 1.42A1.695 1.695 0 0 1 .17 6.696q.038-.745.092-1.488C.457 2.494 2.492.457 5.206.262Q5.865.214 6.694.17a1.695 1.695 0 0 1 1.782 1.605Zm-5.07 10.117a1.696 1.696 0 0 0-3.391-.043 208 208 0 0 0 0 5.13 1.696 1.696 0 0 0 3.391-.043q-.03-2.522 0-5.044m.15 10.065a1.696 1.696 0 1 0-3.388.176q.043.83.093 1.489c.195 2.712 2.23 4.749 4.944 4.945q.66.046 1.488.091a1.696 1.696 0 1 0 .178-3.387 71 71 0 0 1-1.422-.087c-1.034-.075-1.732-.773-1.806-1.807a71 71 0 0 1-.089-1.421h.001Zm8.334 3.464a1.696 1.696 0 0 0-.043 3.391q2.565.033 5.13 0a1.696 1.696 0 0 0-.043-3.391q-2.522.03-5.044 0m16.766-3.288a1.695 1.695 0 1 0-3.386-.176q-.037.71-.087 1.42c-.075 1.034-.774 1.732-1.81 1.808q-.621.046-1.416.087a1.696 1.696 0 0 0 .177 3.387q.826-.043 1.485-.092c2.714-.194 4.75-2.23 4.946-4.944q.053-.744.091-1.49m-1.563-11.958a1.695 1.695 0 0 1 1.717 1.675q.031 2.565 0 5.129a1.696 1.696 0 0 1-3.391-.043q.03-2.522 0-5.044a1.697 1.697 0 0 1 1.674-1.717M22.133.17a1.695 1.695 0 1 0-.177 3.386q.711.037 1.422.088c1.033.074 1.731.773 1.806 1.807q.046.624.088 1.42a1.696 1.696 0 0 0 3.387-.176 75 75 0 0 0-.092-1.488c-.196-2.713-2.23-4.75-4.944-4.945a75 75 0 0 0-1.49-.092m-7.719 30.775c-1.547 0-2.919-.016-4.132-.04.044 1.153.098 2.105.154 2.889.195 2.713 2.232 4.749 4.946 4.945 1.909.139 4.833.261 9.206.261s7.297-.122 9.206-.26c2.714-.195 4.75-2.232 4.946-4.946.139-1.91.261-4.834.261-9.207s-.123-7.298-.26-9.207c-.197-2.713-2.232-4.749-4.946-4.945a87 87 0 0 0-2.89-.155c.025 1.214.042 2.585.042 4.133 0 4.41-.124 7.388-.266 9.36-.271 3.765-3.142 6.634-6.906 6.906-1.973.143-4.95.266-9.36.266Z" clip-rule="evenodd"/></svg>