<svg xmlns="http://www.w3.org/2000/svg" width="43" height="43" fill="none"><g fill="#00769D" clip-path="url(#a)"><path d="M13.394 13.794h-2.376l6.477 18.364 3.627-10.393-2.812-7.971h-2.507v-1.75h11.102v1.75h-2.6l6.477 18.364 2.329-6.674c3.054-8.55-2.503-11.213-2.503-13.12a3.45 3.45 0 0 1 3.745-3.44A17.9 17.9 0 0 0 22 4c-6.25 0-11.755 3.195-14.982 8.044h6.376zM4 22.052A18.06 18.06 0 0 0 13.561 38L5.438 14.971A18 18 0 0 0 4 22.052m33.665-8.895c.258 1.52.18 3.229-.215 4.944h.072l-.273.78a17 17 0 0 1-.595 1.706l-6.193 17.401A18.06 18.06 0 0 0 40 22.052c0-3.234-.849-6.27-2.335-8.895"/><path d="M16 39.108a18 18 0 0 0 5.623.892A18.1 18.1 0 0 0 27 39.187L21.667 24z"/><path d="M36.703 6.297A21.36 21.36 0 0 0 21.5 0 21.36 21.36 0 0 0 6.297 6.297 21.36 21.36 0 0 0 0 21.5a21.36 21.36 0 0 0 6.297 15.203A21.36 21.36 0 0 0 21.5 43a21.36 21.36 0 0 0 15.203-6.297A21.36 21.36 0 0 0 43 21.5a21.36 21.36 0 0 0-6.297-15.203M21.5 41.483c-11.02 0-19.983-8.963-19.983-19.983S10.48 1.517 21.5 1.517 41.483 10.48 41.483 21.5 32.52 41.483 21.5 41.483"/></g><defs><clipPath id="a"><path fill="#fff" d="M0 0h43v43H0z"/></clipPath></defs></svg>